<svg width="100" height="100" viewBox="0 0 100 100" fill="none" xmlns="http://www.w3.org/2000/svg">
<g clip-path="url(#clip0_5_29057)">
<g clip-path="url(#clip1_5_29057)">
<path d="M100 0H0V100H100V0Z" fill="#FFFBF5"/>
<path d="M45.2 10H42V13.2H45.2V10Z" fill="black"/>
<path d="M61.2 10H58V13.2H61.2V10Z" fill="black"/>
<path d="M38.8 13.2H35.6V16.4H38.8V13.2Z" fill="black"/>
<path d="M42 13.2H38.8V16.4H42V13.2Z" fill="black"/>
<path d="M45.2 13.2H42V16.4H45.2V13.2Z" fill="black"/>
<path d="M54.8 13.2H51.6V16.4H54.8V13.2Z" fill="black"/>
<path d="M58 13.2H54.8V16.4H58V13.2Z" fill="black"/>
<path d="M64.4 13.2H61.2V16.4H64.4V13.2Z" fill="black"/>
<path d="M38.8 16.4H35.6V19.6H38.8V16.4Z" fill="black"/>
<path d="M61.2 16.4H58V19.6H61.2V16.4Z" fill="black"/>
<path d="M64.4 16.4H61.2V19.6H64.4V16.4Z" fill="black"/>
<path d="M42 19.6H38.8V22.8H42V19.6Z" fill="black"/>
<path d="M51.6 19.6H48.4V22.8H51.6V19.6Z" fill="black"/>
<path d="M61.2 19.6H58V22.8H61.2V19.6Z" fill="black"/>
<path d="M64.4 19.6H61.2V22.8H64.4V19.6Z" fill="black"/>
<path d="M38.8 22.8H35.6V26H38.8V22.8Z" fill="black"/>
<path d="M42 22.8H38.8V26H42V22.8Z" fill="black"/>
<path d="M45.2 22.8H42V26H45.2V22.8Z" fill="black"/>
<path d="M51.6 22.8H48.4V26H51.6V22.8Z" fill="black"/>
<path d="M54.8 22.8H51.6V26H54.8V22.8Z" fill="black"/>
<path d="M58 22.8H54.8V26H58V22.8Z" fill="black"/>
<path d="M64.4 22.8H61.2V26H64.4V22.8Z" fill="black"/>
<path d="M38.8 26H35.6V29.2H38.8V26Z" fill="black"/>
<path d="M45.2 26H42V29.2H45.2V26Z" fill="black"/>
<path d="M51.6 26H48.4V29.2H51.6V26Z" fill="black"/>
<path d="M61.2 26H58V29.2H61.2V26Z" fill="black"/>
<path d="M38.8 29.2H35.6V32.4H38.8V29.2Z" fill="black"/>
<path d="M45.2 29.2H42V32.4H45.2V29.2Z" fill="black"/>
<path d="M51.6 29.2H48.4V32.4H51.6V29.2Z" fill="black"/>
<path d="M58 29.2H54.8V32.4H58V29.2Z" fill="black"/>
<path d="M64.4 29.2H61.2V32.4H64.4V29.2Z" fill="black"/>
<path d="M38.8 32.4H35.6V35.6H38.8V32.4Z" fill="black"/>
<path d="M45.2 32.4H42V35.6H45.2V32.4Z" fill="black"/>
<path d="M48.4 32.4H45.2V35.6H48.4V32.4Z" fill="black"/>
<path d="M13.2 35.6H10V38.8H13.2V35.6Z" fill="black"/>
<path d="M16.4 35.6H13.2V38.8H16.4V35.6Z" fill="black"/>
<path d="M22.8 35.6H19.6V38.8H22.8V35.6Z" fill="black"/>
<path d="M32.4 35.6H29.2V38.8H32.4V35.6Z" fill="black"/>
<path d="M35.6 35.6H32.4V38.8H35.6V35.6Z" fill="black"/>
<path d="M48.4 35.6H45.2V38.8H48.4V35.6Z" fill="black"/>
<path d="M51.6 35.6H48.4V38.8H51.6V35.6Z" fill="black"/>
<path d="M58 35.6H54.8V38.8H58V35.6Z" fill="black"/>
<path d="M64.4 35.6H61.2V38.8H64.4V35.6Z" fill="black"/>
<path d="M70.8 35.6H67.6V38.8H70.8V35.6Z" fill="black"/>
<path d="M74 35.6H70.8V38.8H74V35.6Z" fill="black"/>
<path d="M77.2 35.6H74V38.8H77.2V35.6Z" fill="black"/>
<path d="M83.6 35.6H80.4V38.8H83.6V35.6Z" fill="black"/>
<path d="M86.8 35.6H83.6V38.8H86.8V35.6Z" fill="black"/>
<path d="M19.6 38.8H16.4V42H19.6V38.8Z" fill="black"/>
<path d="M22.8 38.8H19.6V42H22.8V38.8Z" fill="black"/>
<path d="M26 38.8H22.8V42H26V38.8Z" fill="black"/>
<path d="M42 38.8H38.8V42H42V38.8Z" fill="black"/>
<path d="M48.4 38.8H45.2V42H48.4V38.8Z" fill="black"/>
<path d="M51.6 38.8H48.4V42H51.6V38.8Z" fill="black"/>
<path d="M54.8 38.8H51.6V42H54.8V38.8Z" fill="black"/>
<path d="M58 38.8H54.8V42H58V38.8Z" fill="black"/>
<path d="M61.2 38.8H58V42H61.2V38.8Z" fill="black"/>
<path d="M64.4 38.8H61.2V42H64.4V38.8Z" fill="black"/>
<path d="M70.8 38.8H67.6V42H70.8V38.8Z" fill="black"/>
<path d="M77.2 38.8H74V42H77.2V38.8Z" fill="black"/>
<path d="M86.8 38.8H83.6V42H86.8V38.8Z" fill="black"/>
<path d="M13.2 42H10V45.2H13.2V42Z" fill="black"/>
<path d="M22.8 42H19.6V45.2H22.8V42Z" fill="black"/>
<path d="M26 42H22.8V45.2H26V42Z" fill="black"/>
<path d="M29.2 42H26V45.2H29.2V42Z" fill="black"/>
<path d="M32.4 42H29.2V45.2H32.4V42Z" fill="black"/>
<path d="M48.4 42H45.2V45.2H48.4V42Z" fill="black"/>
<path d="M51.6 42H48.4V45.2H51.6V42Z" fill="black"/>
<path d="M58 42H54.8V45.2H58V42Z" fill="black"/>
<path d="M67.6 42H64.4V45.2H67.6V42Z" fill="black"/>
<path d="M70.8 42H67.6V45.2H70.8V42Z" fill="black"/>
<path d="M74 42H70.8V45.2H74V42Z" fill="black"/>
<path d="M80.4 42H77.2V45.2H80.4V42Z" fill="black"/>
<path d="M83.6 42H80.4V45.2H83.6V42Z" fill="black"/>
<path d="M19.6 45.2H16.4V48.4H19.6V45.2Z" fill="black"/>
<path d="M29.2 45.2H26V48.4H29.2V45.2Z" fill="black"/>
<path d="M38.8 45.2H35.6V48.4H38.8V45.2Z" fill="black"/>
<path d="M42 45.2H38.8V48.4H42V45.2Z" fill="black"/>
<path d="M45.2 45.2H42V48.4H45.2V45.2Z" fill="black"/>
<path d="M48.4 45.2H45.2V48.4H48.4V45.2Z" fill="black"/>
<path d="M51.6 45.2H48.4V48.4H51.6V45.2Z" fill="black"/>
<path d="M64.4 45.2H61.2V48.4H64.4V45.2Z" fill="black"/>
<path d="M67.6 45.2H64.4V48.4H67.6V45.2Z" fill="black"/>
<path d="M70.8 45.2H67.6V48.4H70.8V45.2Z" fill="black"/>
<path d="M74 45.2H70.8V48.4H74V45.2Z" fill="black"/>
<path d="M77.2 45.2H74V48.4H77.2V45.2Z" fill="black"/>
<path d="M90 45.2H86.8V48.4H90V45.2Z" fill="black"/>
<path d="M13.2 48.4H10V51.6H13.2V48.4Z" fill="black"/>
<path d="M16.4 48.4H13.2V51.6H16.4V48.4Z" fill="black"/>
<path d="M22.8 48.4H19.6V51.6H22.8V48.4Z" fill="black"/>
<path d="M26 48.4H22.8V51.6H26V48.4Z" fill="black"/>
<path d="M29.2 48.4H26V51.6H29.2V48.4Z" fill="black"/>
<path d="M32.4 48.4H29.2V51.6H32.4V48.4Z" fill="black"/>
<path d="M35.6 48.4H32.4V51.6H35.6V48.4Z" fill="black"/>
<path d="M45.2 48.4H42V51.6H45.2V48.4Z" fill="black"/>
<path d="M48.4 48.4H45.2V51.6H48.4V48.4Z" fill="black"/>
<path d="M58 48.4H54.8V51.6H58V48.4Z" fill="black"/>
<path d="M64.4 48.4H61.2V51.6H64.4V48.4Z" fill="black"/>
<path d="M70.8 48.4H67.6V51.6H70.8V48.4Z" fill="black"/>
<path d="M74 48.4H70.8V51.6H74V48.4Z" fill="black"/>
<path d="M83.6 48.4H80.4V51.6H83.6V48.4Z" fill="black"/>
<path d="M86.8 48.4H83.6V51.6H86.8V48.4Z" fill="black"/>
<path d="M90 48.4H86.8V51.6H90V48.4Z" fill="black"/>
<path d="M16.4 51.6H13.2V54.8H16.4V51.6Z" fill="black"/>
<path d="M19.6 51.6H16.4V54.8H19.6V51.6Z" fill="black"/>
<path d="M26 51.6H22.8V54.8H26V51.6Z" fill="black"/>
<path d="M42 51.6H38.8V54.8H42V51.6Z" fill="black"/>
<path d="M48.4 51.6H45.2V54.8H48.4V51.6Z" fill="black"/>
<path d="M58 51.6H54.8V54.8H58V51.6Z" fill="black"/>
<path d="M74 51.6H70.8V54.8H74V51.6Z" fill="black"/>
<path d="M77.2 51.6H74V54.8H77.2V51.6Z" fill="black"/>
<path d="M83.6 51.6H80.4V54.8H83.6V51.6Z" fill="black"/>
<path d="M86.8 51.6H83.6V54.8H86.8V51.6Z" fill="black"/>
<path d="M90 51.6H86.8V54.8H90V51.6Z" fill="black"/>
<path d="M13.2 54.8H10V58H13.2V54.8Z" fill="black"/>
<path d="M19.6 54.8H16.4V58H19.6V54.8Z" fill="black"/>
<path d="M26 54.8H22.8V58H26V54.8Z" fill="black"/>
<path d="M29.2 54.8H26V58H29.2V54.8Z" fill="black"/>
<path d="M32.4 54.8H29.2V58H32.4V54.8Z" fill="black"/>
<path d="M35.6 54.8H32.4V58H35.6V54.8Z" fill="black"/>
<path d="M38.8 54.8H35.6V58H38.8V54.8Z" fill="black"/>
<path d="M42 54.8H38.8V58H42V54.8Z" fill="black"/>
<path d="M48.4 54.8H45.2V58H48.4V54.8Z" fill="black"/>
<path d="M58 54.8H54.8V58H58V54.8Z" fill="black"/>
<path d="M61.2 54.8H58V58H61.2V54.8Z" fill="black"/>
<path d="M64.4 54.8H61.2V58H64.4V54.8Z" fill="black"/>
<path d="M70.8 54.8H67.6V58H70.8V54.8Z" fill="black"/>
<path d="M77.2 54.8H74V58H77.2V54.8Z" fill="black"/>
<path d="M80.4 54.8H77.2V58H80.4V54.8Z" fill="black"/>
<path d="M90 54.8H86.8V58H90V54.8Z" fill="black"/>
<path d="M16.4 58H13.2V61.2H16.4V58Z" fill="black"/>
<path d="M22.8 58H19.6V61.2H22.8V58Z" fill="black"/>
<path d="M26 58H22.8V61.2H26V58Z" fill="black"/>
<path d="M42 58H38.8V61.2H42V58Z" fill="black"/>
<path d="M45.2 58H42V61.2H45.2V58Z" fill="black"/>
<path d="M48.4 58H45.2V61.2H48.4V58Z" fill="black"/>
<path d="M58 58H54.8V61.2H58V58Z" fill="black"/>
<path d="M70.8 58H67.6V61.2H70.8V58Z" fill="black"/>
<path d="M74 58H70.8V61.2H74V58Z" fill="black"/>
<path d="M13.2 61.2H10V64.4H13.2V61.2Z" fill="black"/>
<path d="M16.4 61.2H13.2V64.4H16.4V61.2Z" fill="black"/>
<path d="M19.6 61.2H16.4V64.4H19.6V61.2Z" fill="black"/>
<path d="M26 61.2H22.8V64.4H26V61.2Z" fill="black"/>
<path d="M29.2 61.2H26V64.4H29.2V61.2Z" fill="black"/>
<path d="M32.4 61.2H29.2V64.4H32.4V61.2Z" fill="black"/>
<path d="M35.6 61.2H32.4V64.4H35.6V61.2Z" fill="black"/>
<path d="M42 61.2H38.8V64.4H42V61.2Z" fill="black"/>
<path d="M51.6 61.2H48.4V64.4H51.6V61.2Z" fill="black"/>
<path d="M54.8 61.2H51.6V64.4H54.8V61.2Z" fill="black"/>
<path d="M58 61.2H54.8V64.4H58V61.2Z" fill="black"/>
<path d="M64.4 61.2H61.2V64.4H64.4V61.2Z" fill="black"/>
<path d="M67.6 61.2H64.4V64.4H67.6V61.2Z" fill="black"/>
<path d="M70.8 61.2H67.6V64.4H70.8V61.2Z" fill="black"/>
<path d="M74 61.2H70.8V64.4H74V61.2Z" fill="black"/>
<path d="M77.2 61.2H74V64.4H77.2V61.2Z" fill="black"/>
<path d="M90 61.2H86.8V64.4H90V61.2Z" fill="black"/>
<path d="M38.8 64.4H35.6V67.6H38.8V64.4Z" fill="black"/>
<path d="M42 64.4H38.8V67.6H42V64.4Z" fill="black"/>
<path d="M51.6 64.4H48.4V67.6H51.6V64.4Z" fill="black"/>
<path d="M54.8 64.4H51.6V67.6H54.8V64.4Z" fill="black"/>
<path d="M58 64.4H54.8V67.6H58V64.4Z" fill="black"/>
<path d="M64.4 64.4H61.2V67.6H64.4V64.4Z" fill="black"/>
<path d="M77.2 64.4H74V67.6H77.2V64.4Z" fill="black"/>
<path d="M38.8 67.6H35.6V70.8H38.8V67.6Z" fill="black"/>
<path d="M45.2 67.6H42V70.8H45.2V67.6Z" fill="black"/>
<path d="M48.4 67.6H45.2V70.8H48.4V67.6Z" fill="black"/>
<path d="M51.6 67.6H48.4V70.8H51.6V67.6Z" fill="black"/>
<path d="M54.8 67.6H51.6V70.8H54.8V67.6Z" fill="black"/>
<path d="M61.2 67.6H58V70.8H61.2V67.6Z" fill="black"/>
<path d="M64.4 67.6H61.2V70.8H64.4V67.6Z" fill="black"/>
<path d="M70.8 67.6H67.6V70.8H70.8V67.6Z" fill="black"/>
<path d="M77.2 67.6H74V70.8H77.2V67.6Z" fill="black"/>
<path d="M80.4 67.6H77.2V70.8H80.4V67.6Z" fill="black"/>
<path d="M86.8 67.6H83.6V70.8H86.8V67.6Z" fill="black"/>
<path d="M90 67.6H86.8V70.8H90V67.6Z" fill="black"/>
<path d="M42 70.8H38.8V74H42V70.8Z" fill="black"/>
<path d="M45.2 70.8H42V74H45.2V70.8Z" fill="black"/>
<path d="M51.6 70.8H48.4V74H51.6V70.8Z" fill="black"/>
<path d="M64.4 70.8H61.2V74H64.4V70.8Z" fill="black"/>
<path d="M77.2 70.8H74V74H77.2V70.8Z" fill="black"/>
<path d="M80.4 70.8H77.2V74H80.4V70.8Z" fill="black"/>
<path d="M83.6 70.8H80.4V74H83.6V70.8Z" fill="black"/>
<path d="M86.8 70.8H83.6V74H86.8V70.8Z" fill="black"/>
<path d="M90 70.8H86.8V74H90V70.8Z" fill="black"/>
<path d="M42 74H38.8V77.2H42V74Z" fill="black"/>
<path d="M51.6 74H48.4V77.2H51.6V74Z" fill="black"/>
<path d="M54.8 74H51.6V77.2H54.8V74Z" fill="black"/>
<path d="M58 74H54.8V77.2H58V74Z" fill="black"/>
<path d="M61.2 74H58V77.2H61.2V74Z" fill="black"/>
<path d="M64.4 74H61.2V77.2H64.4V74Z" fill="black"/>
<path d="M67.6 74H64.4V77.2H67.6V74Z" fill="black"/>
<path d="M70.8 74H67.6V77.2H70.8V74Z" fill="black"/>
<path d="M74 74H70.8V77.2H74V74Z" fill="black"/>
<path d="M77.2 74H74V77.2H77.2V74Z" fill="black"/>
<path d="M83.6 74H80.4V77.2H83.6V74Z" fill="black"/>
<path d="M86.8 74H83.6V77.2H86.8V74Z" fill="black"/>
<path d="M38.8 77.2H35.6V80.4H38.8V77.2Z" fill="black"/>
<path d="M42 77.2H38.8V80.4H42V77.2Z" fill="black"/>
<path d="M48.4 77.2H45.2V80.4H48.4V77.2Z" fill="black"/>
<path d="M54.8 77.2H51.6V80.4H54.8V77.2Z" fill="black"/>
<path d="M61.2 77.2H58V80.4H61.2V77.2Z" fill="black"/>
<path d="M64.4 77.2H61.2V80.4H64.4V77.2Z" fill="black"/>
<path d="M67.6 77.2H64.4V80.4H67.6V77.2Z" fill="black"/>
<path d="M74 77.2H70.8V80.4H74V77.2Z" fill="black"/>
<path d="M77.2 77.2H74V80.4H77.2V77.2Z" fill="black"/>
<path d="M42 80.4H38.8V83.6H42V80.4Z" fill="black"/>
<path d="M45.2 80.4H42V83.6H45.2V80.4Z" fill="black"/>
<path d="M51.6 80.4H48.4V83.6H51.6V80.4Z" fill="black"/>
<path d="M61.2 80.4H58V83.6H61.2V80.4Z" fill="black"/>
<path d="M74 80.4H70.8V83.6H74V80.4Z" fill="black"/>
<path d="M80.4 80.4H77.2V83.6H80.4V80.4Z" fill="black"/>
<path d="M83.6 80.4H80.4V83.6H83.6V80.4Z" fill="black"/>
<path d="M90 80.4H86.8V83.6H90V80.4Z" fill="black"/>
<path d="M38.8 83.6H35.6V86.8H38.8V83.6Z" fill="black"/>
<path d="M58 83.6H54.8V86.8H58V83.6Z" fill="black"/>
<path d="M64.4 83.6H61.2V86.8H64.4V83.6Z" fill="black"/>
<path d="M67.6 83.6H64.4V86.8H67.6V83.6Z" fill="black"/>
<path d="M80.4 83.6H77.2V86.8H80.4V83.6Z" fill="black"/>
<path d="M86.8 83.6H83.6V86.8H86.8V83.6Z" fill="black"/>
<path d="M90 83.6H86.8V86.8H90V83.6Z" fill="black"/>
<path d="M38.8 86.8H35.6V90H38.8V86.8Z" fill="black"/>
<path d="M51.6 86.8H48.4V90H51.6V86.8Z" fill="black"/>
<path d="M64.4 86.8H61.2V90H64.4V86.8Z" fill="black"/>
<path d="M77.2 86.8H74V90H77.2V86.8Z" fill="black"/>
<path d="M80.4 86.8H77.2V90H80.4V86.8Z" fill="black"/>
<path d="M86.8 86.8H83.6V90H86.8V86.8Z" fill="black"/>
<path d="M90 86.8H86.8V90H90V86.8Z" fill="black"/>
<g clip-path="url(#clip2_5_29057)">
<path d="M10.6784 9.9968C10.304 9.9968 9.99683 10.304 9.99683 10.6784V13.2V16.4V19.6V22.8V26V29.2V31.7216C9.99683 32.096 10.3008 32.4032 10.6784 32.4032H31.7216C32.096 32.4032 32.4032 32.0992 32.4032 31.7216V29.2V26V22.8V19.6V16.4V13.2V10.6784C32.4032 10.304 32.0992 9.9968 31.7216 9.9968H10.6784ZM29.2 16.4V19.6V22.8V26V28.8096C29.2 29.0272 29.024 29.2 28.8096 29.2H13.5904C13.3728 29.2 13.2 29.024 13.2 28.8096V26V22.8V19.6V16.4V13.5904C13.2 13.3728 13.376 13.2 13.5904 13.2H28.8096C29.0272 13.2 29.2 13.376 29.2 13.5904V16.4Z" fill="black"/>
</g>
<path d="M26 22.8V19.6V17.0784C26 16.704 25.696 16.3968 25.3184 16.3968H17.0784C16.704 16.3968 16.3968 16.7008 16.3968 17.0784V19.6V22.8V25.3216C16.3968 25.696 16.7008 26.0032 17.0784 26.0032H25.3184C25.6928 26.0032 26 25.6992 26 25.3216V22.8Z" fill="black"/>
<g clip-path="url(#clip3_5_29057)">
<path d="M68.2784 9.9968C67.904 9.9968 67.5968 10.304 67.5968 10.6784V13.2V16.4V19.6V22.8V26V29.2V31.7216C67.5968 32.096 67.9008 32.4032 68.2784 32.4032H89.3216C89.696 32.4032 90.0032 32.0992 90.0032 31.7216V29.2V26V22.8V19.6V16.4V13.2V10.6784C90.0032 10.304 89.6992 9.9968 89.3216 9.9968H68.2784ZM86.8 16.4V19.6V22.8V26V28.8096C86.8 29.0272 86.624 29.2 86.4096 29.2H71.1904C70.9728 29.2 70.8 29.024 70.8 28.8096V26V22.8V19.6V16.4V13.5904C70.8 13.3728 70.976 13.2 71.1904 13.2H86.4096C86.6272 13.2 86.8 13.376 86.8 13.5904V16.4Z" fill="black"/>
</g>
<path d="M83.6 22.8V19.6V17.0784C83.6 16.704 83.296 16.3968 82.9184 16.3968H74.6784C74.304 16.3968 73.9968 16.7008 73.9968 17.0784V19.6V22.8V25.3216C73.9968 25.696 74.3008 26.0032 74.6784 26.0032H82.9184C83.2928 26.0032 83.6 25.6992 83.6 25.3216V22.8Z" fill="black"/>
<g clip-path="url(#clip4_5_29057)">
<path d="M10.6784 67.5968C10.304 67.5968 9.99683 67.904 9.99683 68.2784V70.8V74V77.2V80.4V83.6V86.8V89.3216C9.99683 89.696 10.3008 90.0032 10.6784 90.0032H31.7216C32.096 90.0032 32.4032 89.6992 32.4032 89.3216V86.8V83.6V80.4V77.2V74V70.8V68.2784C32.4032 67.904 32.0992 67.5968 31.7216 67.5968H10.6784ZM29.2 74V77.2V80.4V83.6V86.4096C29.2 86.6272 29.024 86.8 28.8096 86.8H13.5904C13.3728 86.8 13.2 86.624 13.2 86.4096V83.6V80.4V77.2V74V71.1904C13.2 70.9728 13.376 70.8 13.5904 70.8H28.8096C29.0272 70.8 29.2 70.976 29.2 71.1904V74Z" fill="black"/>
</g>
<path d="M26 80.4V77.2V74.6784C26 74.304 25.696 73.9968 25.3184 73.9968H17.0784C16.704 73.9968 16.3968 74.3008 16.3968 74.6784V77.2V80.4V82.9216C16.3968 83.296 16.7008 83.6032 17.0784 83.6032H25.3184C25.6928 83.6032 26 83.2992 26 82.9216V80.4Z" fill="black"/>
</g>
</g>
<defs>
<clipPath id="clip0_5_29057">
<rect width="100" height="100" fill="white"/>
</clipPath>
<clipPath id="clip1_5_29057">
<rect width="100" height="100" fill="white"/>
</clipPath>
<clipPath id="clip2_5_29057">
<rect width="22.4" height="22.4" fill="white" transform="translate(10 10)"/>
</clipPath>
<clipPath id="clip3_5_29057">
<rect width="22.4" height="22.4" fill="white" transform="translate(67.6 10)"/>
</clipPath>
<clipPath id="clip4_5_29057">
<rect width="22.4" height="22.4" fill="white" transform="translate(10 67.6)"/>
</clipPath>
</defs>
</svg>
