<svg width="40" height="40" viewBox="0 0 40 40" fill="none" xmlns="http://www.w3.org/2000/svg">
<g clip-path="url(#clip0_5_29042)">
<rect width="39.5" height="39.5" rx="19.75" fill="#674188"/>
<path fill-rule="evenodd" clip-rule="evenodd" d="M29.1078 -1.88095H32.9318V19.965L32.9319 19.9924L32.9318 20.0199V20.7572H32.9095C32.7476 23.514 31.7166 26.0372 30.0866 28.0567L34.9011 32.8712L32.1971 35.5752L27.268 30.6461C25.2171 32.0319 22.7446 32.8412 20.0831 32.8412C12.987 32.8412 7.23444 27.0886 7.23444 19.9924C7.23444 12.8963 12.987 7.14374 20.0831 7.14374C23.6004 7.14374 26.7876 8.55702 29.1078 10.8467V-1.88095ZM20.1596 28.8642C25.0937 28.8642 29.0951 24.8707 29.1078 19.9396V19.8923C29.0951 14.9613 25.0937 10.9678 20.1596 10.9678C15.2177 10.9678 11.2114 14.974 11.2114 19.916C11.2114 24.8579 15.2177 28.8642 20.1596 28.8642Z" fill="white"/>
<path fill-rule="evenodd" clip-rule="evenodd" d="M16.9042 14.8251C17.8438 14.2231 18.9609 13.874 20.1596 13.874C23.4965 13.874 26.2015 16.5791 26.2015 19.9159C26.2015 21.1146 25.8525 22.2318 25.2505 23.1713L23.3038 21.2247C23.4949 20.8022 23.6012 20.3333 23.6012 19.8395C23.6012 17.981 22.0946 16.4743 20.2361 16.4743C19.7423 16.4743 19.2733 16.5807 18.8509 16.7717L16.9042 14.8251Z" fill="white"/>
</g>
<defs>
<clipPath id="clip0_5_29042">
<rect width="39.5" height="39.5" rx="19.75" fill="white"/>
</clipPath>
</defs>
</svg>
